<?xml version="1.0" encoding="iso-8859-1"?>
<!-- Uploaded to: SVG Repo, www.svgrepo.com, Generator: SVG Repo Mixer Tools -->
<svg height="800px" width="800px" version="1.1" id="Layer_1" xmlns="http://www.w3.org/2000/svg" xmlns:xlink="http://www.w3.org/1999/xlink" 
	 viewBox="0 0 512 512" xml:space="preserve">
<path style="fill:#AB91EA;" d="M512,256.006C512,397.402,397.394,512.004,256.004,512C114.606,512.004,0,397.402,0,256.006
	C-0.007,114.61,114.606,0,256.004,0C397.394,0,512,114.614,512,256.006z"/>
<path style="fill:#947ADB;" d="M512,256.005c0-4.441-0.114-8.853-0.338-13.237l-0.107-0.108
	c-0.012-0.012-97.138-97.137-97.138-97.137c-0.011-0.011-0.026-0.014-0.036-0.026c0,0-1.508-1.521-1.554-1.566
	c-15.332-15.455-49.365-49.366-49.365-49.366c-1.279-1.291-3.021-2.015-4.836-2.015h-205.25c-1.815,0-3.557,0.724-4.836,2.015
	c0,0-53.993,54.462-54.013,54.483c-0.11,0.108-0.143,0.253-0.242,0.367c-0.483,0.555-0.926,1.148-1.211,1.839
	c-0.279,0.679-0.378,1.401-0.427,2.123c-0.013,0.162-0.096,0.301-0.096,0.466v237.19c0,7.998,3.715,15.3,9.498,20.523
	c0.518,0.545,91.795,91.851,92.356,92.356c0.244,0.258,0.506,0.5,0.753,0.753c19.509,4.756,39.872,7.334,60.848,7.334
	C397.394,512.004,512,397.401,512,256.005z"/>
<g>
	<path style="fill:#F6F6F6;" d="M419.355,153.377c-0.05-0.722-0.148-1.443-0.428-2.123c-0.285-0.691-0.727-1.284-1.212-1.839
		c-0.098-0.113-0.133-0.258-0.241-0.367l-0.018-0.018l-0.003-0.003L363.46,94.565c-1.277-1.291-3.02-2.015-4.835-2.015h-205.25
		c-1.815,0-3.558,0.725-4.835,2.015l-53.993,54.462l-0.003,0.003l-0.018,0.018c-0.108,0.109-0.143,0.253-0.241,0.367
		c-0.484,0.555-0.926,1.148-1.212,1.839c-0.281,0.681-0.379,1.401-0.428,2.123c-0.012,0.162-0.095,0.301-0.095,0.466v88.535v81.725
		v66.93c0,15.404,13.607,28.416,29.715,28.416h268.865c15.616,0,28.319-12.747,28.319-28.416v-66.93v-81.725v-88.535
		C419.45,153.679,419.366,153.54,419.355,153.377z M405.829,235.569H106.171v-74.914h299.658v74.914H405.829z M106.171,249.189
		h299.658v68.105H106.171V249.189z M156.211,106.171h199.577l40.51,40.863H115.701L156.211,106.171z M391.131,405.829H122.266
		c-8.423,0-16.095-7.053-16.095-14.795v-60.119h299.658v60.119C405.829,399.191,399.235,405.829,391.131,405.829z"/>
	<path style="fill:#F6F6F6;" d="M147.034,224.159c15.773,0,28.605-13.095,28.605-29.19c0-16.098-12.833-29.194-28.605-29.194
		s-28.605,13.095-28.605,29.194C118.429,211.063,131.261,224.159,147.034,224.159z M147.034,179.396
		c8.263,0,14.985,6.987,14.985,15.573s-6.721,15.569-14.985,15.569s-14.985-6.983-14.985-15.569
		C132.049,186.384,138.77,179.396,147.034,179.396z"/>
	<path style="fill:#F6F6F6;" d="M286.477,215.061c9.441,0,17.119-7.678,17.119-17.119c0-9.441-7.678-17.122-17.119-17.122
		s-17.122,7.682-17.122,17.122C269.355,207.382,277.037,215.061,286.477,215.061z M286.477,194.441c1.929,0,3.499,1.569,3.499,3.502
		c0,1.929-1.569,3.499-3.499,3.499c-1.932,0-3.502-1.569-3.502-3.499C282.976,196.01,284.545,194.441,286.477,194.441z"/>
	<path style="fill:#F6F6F6;" d="M327.34,215.061c9.441,0,17.119-7.678,17.119-17.119c0-9.441-7.678-17.122-17.119-17.122
		c-9.441,0-17.122,7.682-17.122,17.122C310.218,207.382,317.899,215.061,327.34,215.061z M327.34,194.441
		c1.929,0,3.499,1.569,3.499,3.502c0,1.929-1.569,3.499-3.499,3.499c-1.932,0-3.502-1.569-3.502-3.499
		C323.838,196.01,325.408,194.441,327.34,194.441z"/>
	<path style="fill:#F6F6F6;" d="M368.202,214.859c9.441,0,17.119-7.588,17.119-16.916c0-9.328-7.678-16.916-17.119-16.916
		c-9.441,0-17.122,7.588-17.122,16.916C351.079,207.27,358.762,214.859,368.202,214.859z M368.202,194.646
		c1.929,0,3.499,1.479,3.499,3.295c0,1.815-1.569,3.295-3.499,3.295c-1.932,0-3.502-1.479-3.502-3.295
		C364.7,196.126,366.27,194.646,368.202,194.646z"/>
	<path style="fill:#F6F6F6;" d="M147.034,254.361c-15.773,0-28.605,12.956-28.605,28.881s12.833,28.881,28.605,28.881
		s28.605-12.956,28.605-28.881S162.805,254.361,147.034,254.361z M147.034,298.501c-8.263,0-14.985-6.847-14.985-15.26
		c0-8.413,6.721-15.26,14.985-15.26s14.985,6.847,14.985,15.26C162.018,291.654,155.297,298.501,147.034,298.501z"/>
	<path style="fill:#F6F6F6;" d="M286.477,269.561c-9.441,0-17.122,7.588-17.122,16.916s7.682,16.916,17.122,16.916
		s17.119-7.588,17.119-16.916S295.918,269.561,286.477,269.561z M286.477,289.773c-1.932,0-3.502-1.479-3.502-3.295
		s1.569-3.296,3.502-3.296c1.929,0,3.499,1.479,3.499,3.296C289.975,288.293,288.406,289.773,286.477,289.773z"/>
	<path style="fill:#F6F6F6;" d="M327.34,269.355c-9.441,0-17.122,7.682-17.122,17.122s7.682,17.119,17.122,17.119
		c9.44,0,17.119-7.678,17.119-17.119S336.781,269.355,327.34,269.355z M327.34,289.975c-1.932,0-3.502-1.569-3.502-3.499
		c0-1.932,1.569-3.502,3.502-3.502c1.929,0,3.499,1.569,3.499,3.502C330.838,288.406,329.268,289.975,327.34,289.975z"/>
	<path style="fill:#F6F6F6;" d="M368.202,269.561c-9.441,0-17.122,7.588-17.122,16.916s7.682,16.916,17.122,16.916
		c9.44,0,17.119-7.588,17.119-16.916S377.643,269.561,368.202,269.561z M368.202,289.773c-1.932,0-3.502-1.479-3.502-3.295
		s1.569-3.296,3.502-3.296c1.929,0,3.499,1.479,3.499,3.296C371.7,288.293,370.131,289.773,368.202,289.773z"/>
	<path style="fill:#F6F6F6;" d="M286.477,351.079c-9.441,0-17.122,7.682-17.122,17.122c0,9.44,7.682,17.119,17.122,17.119
		s17.119-7.678,17.119-17.119C303.596,358.761,295.918,351.079,286.477,351.079z M286.477,371.7c-1.932,0-3.502-1.569-3.502-3.499
		c0-1.932,1.569-3.502,3.502-3.502c1.929,0,3.499,1.569,3.499,3.502C289.975,370.131,288.406,371.7,286.477,371.7z"/>
	<path style="fill:#F6F6F6;" d="M327.34,351.079c-9.441,0-17.122,7.682-17.122,17.122c0,9.44,7.682,17.119,17.122,17.119
		c9.44,0,17.119-7.678,17.119-17.119C344.459,358.761,336.781,351.079,327.34,351.079z M327.34,371.7
		c-1.932,0-3.502-1.569-3.502-3.499c0-1.932,1.569-3.502,3.502-3.502c1.929,0,3.499,1.569,3.499,3.502
		C330.838,370.131,329.268,371.7,327.34,371.7z"/>
	<path style="fill:#F6F6F6;" d="M368.202,351.285c-9.441,0-17.122,7.588-17.122,16.916c0,9.328,7.682,16.916,17.122,16.916
		c9.44,0,17.119-7.588,17.119-16.916C385.321,358.874,377.643,351.285,368.202,351.285z M368.202,371.498
		c-1.932,0-3.502-1.479-3.502-3.296c0-1.817,1.569-3.295,3.502-3.295c1.929,0,3.499,1.479,3.499,3.295
		C371.7,370.017,370.131,371.498,368.202,371.498z"/>
	<path style="fill:#F6F6F6;" d="M147.034,336.122c-15.895,0-28.825,12.939-28.825,28.845c0,15.905,12.929,28.845,28.825,28.845
		s28.825-12.939,28.825-28.845C175.858,349.061,162.929,336.122,147.034,336.122z M147.034,380.19
		c-8.383,0-15.203-6.83-15.203-15.223s6.82-15.223,15.203-15.223c8.383,0,15.203,6.83,15.203,15.223S155.417,380.19,147.034,380.19z
		"/>
</g>
</svg>